<?xml version="1.0" encoding="utf-8"?>
<!-- Generator: Adobe Illustrator 25.3.1, SVG Export Plug-In . SVG Version: 6.00 Build 0)  -->
<svg version="1.1" id="Layer_1" xmlns="http://www.w3.org/2000/svg" xmlns:xlink="http://www.w3.org/1999/xlink" x="0px" y="0px"
	 viewBox="0 0 981 274" enable-background="new 0 0 981 274" xml:space="preserve">
<g>
	<g>
		<g>
			<path fill="#269DA3" d="M273.5,57.8h27l43.7,120.5h-25.2l-7.2-20h-49.6l-7.2,20h-25.2L273.5,57.8z M262.8,23.5h23.8l6.9,24.8
				h-15.8L262.8,23.5z M270.9,134.6h32.2l-16.2-44.2L270.9,134.6z"/>
			<path fill="#269DA3" d="M402.8,178.3V57.8h44.9c6.5,0,12.4,1.3,17.6,4c5.3,2.7,9.5,6.5,12.5,11.4c3.1,4.9,4.6,10.7,4.6,17.4
				c0,2.7-0.4,5.5-1.1,8.4c-0.7,2.9-1.9,5.5-3.6,7.9c-1.7,2.4-4,4.2-6.9,5.5c3.8,0.9,6.8,2.6,9.1,5.1c2.3,2.5,4,5.4,5.3,8.6
				c1.2,3.2,2,6.6,2.4,9.9c0.4,3.4,0.6,6.5,0.6,9.2c0,6.2-1.6,11.8-4.8,16.8c-3.2,5-7.5,9-13,11.9s-11.4,4.4-18,4.4H402.8z
				 M426.6,103.7h18.3c3.8,0,7-1.2,9.7-3.7c2.7-2.5,4-5.7,4-9.6c0-4-1.3-7.1-4-9.2c-2.7-2.1-5.9-3.1-9.7-3.1h-18.3V103.7z
				 M426.6,158.1H450c3.2,0,6-0.8,8.6-2.3c2.6-1.5,4.6-3.6,6.2-6.3c1.5-2.7,2.3-5.7,2.3-9.1c0-2.9-0.8-5.6-2.3-8.2s-3.6-4.7-6.2-6.3
				c-2.6-1.6-5.5-2.5-8.6-2.5h-23.4V158.1z"/>
			<path fill="#269DA3" d="M517.5,82.3c-3.4,0-6.3-1.1-8.7-3.4c-2.4-2.3-3.5-5.1-3.5-8.5c0-3.4,1.2-6.2,3.5-8.5
				c2.4-2.3,5.2-3.4,8.6-3.4c3.4,0,6.2,1.1,8.6,3.4c2.3,2.3,3.5,5.1,3.5,8.5c0,3.4-1.1,6.2-3.4,8.5
				C523.8,81.2,520.9,82.3,517.5,82.3z M505.5,92.2h23.8v86.1h-23.8V92.2z"/>
			<path fill="#269DA3" d="M587.8,180.6c-7.9,0-15.1-2-21.7-6.1c-6.5-4.1-11.7-9.6-15.6-16.4s-5.8-14.5-5.8-22.8
				c0-6.3,1.1-12.1,3.4-17.6c2.2-5.5,5.3-10.3,9.3-14.5c3.9-4.2,8.5-7.4,13.7-9.8c5.2-2.4,10.8-3.5,16.7-3.5
				c6.8,0,13.1,1.5,18.7,4.4c5.7,2.9,10.4,6.9,14.4,12c3.9,5.1,6.7,10.8,8.4,17.1c1.7,6.4,2,13,0.8,19.9h-59.7
				c0.7,2.5,1.9,4.8,3.5,6.8c1.6,2,3.5,3.7,5.9,4.9c2.3,1.2,5,1.8,8,1.9c3,0.1,5.7-0.6,8.3-2.1c2.5-1.4,4.7-3.4,6.5-5.8l24.3,5.6
				c-3.5,7.6-8.7,13.9-15.7,18.7C604.1,178.1,596.4,180.6,587.8,180.6z M569.5,125.6h36.6c-0.7-2.9-2-5.5-3.8-7.7
				c-1.8-2.3-3.9-4.1-6.4-5.4c-2.5-1.3-5.2-2-8.1-2c-2.9,0-5.6,0.7-8,2c-2.5,1.3-4.6,3.1-6.4,5.4
				C571.6,120.1,570.3,122.7,569.5,125.6z"/>
			<path fill="#269DA3" d="M726.3,123.6v54.8h-23.8v-48.2c0-3-0.7-5.8-2.2-8.2c-1.5-2.4-3.4-4.4-5.9-5.8c-2.4-1.4-5.2-2.2-8.1-2.2
				c-3,0-5.7,0.7-8.2,2.2c-2.5,1.4-4.4,3.4-5.9,5.8c-1.4,2.4-2.2,5.2-2.2,8.2v48.2h-23.8l-0.1-86.1h23.8l0.1,6.4
				c2.9-2.8,6.2-4.9,10.1-6.5c3.9-1.5,8-2.3,12.3-2.3c6.3,0,11.9,1.5,17,4.6c5.1,3,9.1,7.1,12.2,12.2
				C724.8,111.6,726.3,117.3,726.3,123.6z"/>
			<path fill="#269DA3" d="M790.3,116h-15.5v62.3h-23.8V116h-11.9V92.2h11.9v-27h23.8v27h15.5V116z"/>
			<path fill="#269DA3" d="M843.7,180.6c-7.9,0-15.1-2-21.7-6.1c-6.5-4.1-11.7-9.5-15.6-16.4c-3.9-6.9-5.8-14.4-5.8-22.8
				c0-6.3,1.1-12.2,3.4-17.7c2.2-5.5,5.3-10.3,9.3-14.5c3.9-4.2,8.5-7.4,13.7-9.8c5.2-2.4,10.8-3.5,16.7-3.5c7.9,0,15.1,2,21.7,6.1
				c6.5,4.1,11.7,9.6,15.6,16.4c3.9,6.9,5.8,14.5,5.8,22.9c0,6.3-1.1,12.1-3.4,17.6c-2.2,5.5-5.3,10.3-9.3,14.4
				c-3.9,4.2-8.5,7.4-13.7,9.8C855.3,179.4,849.7,180.6,843.7,180.6z M857.1,58l16.7,24.8h-15.8l-14.2-16.4l-14,16.4h-15.8L830.2,58
				H857.1z M843.7,156.8c3.7,0,7-1,9.9-3c2.9-2,5.2-4.6,6.9-7.9c1.7-3.3,2.5-6.8,2.5-10.7c0-4-0.9-7.6-2.6-10.9
				c-1.8-3.3-4.1-5.9-7-7.9c-2.9-2-6.1-2.9-9.6-2.9c-3.6,0-6.9,1-9.8,3c-2.9,2-5.2,4.6-6.9,7.9c-1.7,3.3-2.5,6.9-2.5,10.8
				c0,4.1,0.9,7.7,2.6,11c1.8,3.2,4.1,5.8,7,7.7S840.2,156.8,843.7,156.8z"/>
			<path fill="#269DA3" d="M949.1,116h-15.5v62.3h-23.8V116H898V92.2h11.9v-27h23.8v27h15.5V116z"/>
		</g>
	</g>
</g>
<g>
	<g>
		<g>
			<path fill="#279EA4" d="M269,197.8v9.2h-13.7v37.4h-9.2V207h-13.7v-9.2H269z"/>
			<path fill="#279EA4" d="M290.3,245.3c-3.1,0-5.8-0.8-8.4-2.4c-2.5-1.6-4.5-3.7-6-6.3s-2.2-5.6-2.2-8.8c0-2.4,0.4-4.7,1.3-6.8
				c0.9-2.1,2.1-4,3.6-5.6c1.5-1.6,3.3-2.9,5.3-3.8s4.2-1.4,6.5-1.4c3.1,0,5.8,0.8,8.4,2.4c2.5,1.6,4.5,3.7,6,6.4
				c1.5,2.7,2.2,5.6,2.2,8.8c0,2.4-0.4,4.7-1.3,6.8c-0.9,2.1-2.1,4-3.6,5.6c-1.5,1.6-3.3,2.9-5.3,3.8
				C294.8,244.8,292.6,245.3,290.3,245.3z M290.3,236.1c1.4,0,2.7-0.4,3.8-1.1c1.1-0.8,2-1.8,2.7-3c0.6-1.3,1-2.6,1-4.1
				c0-1.5-0.3-2.9-1-4.2s-1.6-2.3-2.7-3c-1.1-0.8-2.4-1.1-3.7-1.1c-1.4,0-2.7,0.4-3.8,1.2c-1.1,0.8-2,1.8-2.7,3.1s-1,2.6-1,4.2
				c0,1.6,0.3,3,1,4.2c0.7,1.3,1.6,2.2,2.7,3C287.7,235.7,289,236.1,290.3,236.1z"/>
			<path fill="#279EA4" d="M311.6,232.2v-21.1h9.2v18.6c0,1.2,0.3,2.2,0.8,3.2s1.3,1.7,2.3,2.2c1,0.6,2,0.8,3.1,0.8
				c1.2,0,2.2-0.3,3.2-0.8c1-0.6,1.7-1.3,2.3-2.2s0.8-2,0.8-3.2v-18.6h9.2l0,33.3h-9.2l0-2.5c-1.1,1.1-2.4,1.9-3.9,2.5
				s-3.1,0.9-4.7,0.9c-2.4,0-4.6-0.6-6.6-1.8c-2-1.2-3.5-2.7-4.7-4.7C312.2,236.8,311.6,234.6,311.6,232.2z"/>
			<path fill="#279EA4" d="M349.2,244.4l0-33.3h9.2l0,2.5c1.1-1.1,2.4-1.9,3.9-2.5c1.5-0.6,3.1-0.9,4.7-0.9c1.2,0,2.4,0.2,3.7,0.5
				L367,220c-0.8-0.3-1.6-0.5-2.4-0.5c-1.2,0-2.2,0.3-3.2,0.8c-1,0.6-1.7,1.3-2.3,2.2c-0.6,0.9-0.8,2-0.8,3.2v18.6H349.2z"/>
			<path fill="#279EA4" d="M385,245c-1.7-0.1-3.3-0.5-4.9-1.1c-1.6-0.6-3-1.4-4.2-2.4s-2.2-2.2-2.9-3.6l7.7-3.3
				c0.2,0.4,0.6,0.7,1.1,1.1c0.5,0.4,1.1,0.8,1.8,1.1c0.7,0.3,1.5,0.5,2.4,0.5c0.7,0,1.4-0.1,2-0.2c0.6-0.2,1.2-0.4,1.6-0.8
				c0.4-0.4,0.6-0.9,0.6-1.5c0-0.7-0.3-1.3-0.8-1.6c-0.5-0.4-1.1-0.7-1.8-0.8c-0.7-0.2-1.4-0.3-2.1-0.5c-2-0.4-4-1-5.8-1.9
				c-1.8-0.9-3.3-2.1-4.4-3.6s-1.7-3.2-1.7-5.3c0-2.2,0.6-4.2,1.8-5.8c1.2-1.6,2.7-2.9,4.6-3.8c1.9-0.9,3.9-1.3,6.1-1.3
				c2.6,0,5,0.5,7.2,1.6c2.2,1.1,4,2.6,5.4,4.6l-7.3,4.3c-0.3-0.4-0.7-0.8-1.1-1.2c-0.5-0.4-1-0.7-1.6-1s-1.2-0.4-1.9-0.5
				c-0.9-0.1-1.7,0-2.4,0.1c-0.7,0.2-1.3,0.5-1.7,0.9c-0.4,0.4-0.6,1-0.6,1.8c0,0.7,0.3,1.3,1,1.6c0.6,0.3,1.4,0.6,2.2,0.8
				c0.8,0.2,1.6,0.4,2.2,0.6c1.9,0.6,3.7,1.4,5.4,2.4c1.7,1,3.1,2.1,4.1,3.5c1,1.4,1.5,3,1.5,4.9c0,2.2-0.7,4.1-2,5.8
				c-1.3,1.7-3,2.9-5.1,3.8C389.5,244.9,387.3,245.2,385,245z"/>
			<path fill="#279EA4" d="M433.5,245.3c-2.7,0-5.2-0.7-7.4-2s-3.9-3.1-5.2-5.3c-1.3-2.2-1.9-4.6-1.9-7.2c0-1.4,0.1-2.7,0.4-3.7
				s0.7-2.1,1.3-3.1c0.6-1,1.4-2.1,2.5-3.2c1-1.2,2.3-2.5,3.9-4.1c-0.8-0.8-1.5-1.6-2.1-2.3c-0.6-0.7-1-1.4-1.4-2.1
				c-0.4-0.7-0.6-1.4-0.8-2.2c-0.2-0.8-0.2-1.6-0.2-2.5c0-2.1,0.5-4,1.5-5.7c1-1.7,2.4-3,4-3.9c1.7-1,3.5-1.4,5.4-1.4
				c2,0,3.9,0.5,5.6,1.5c1.7,1,3,2.3,4,4c1,1.7,1.5,3.5,1.5,5.6c0,1-0.1,1.8-0.2,2.6c-0.2,0.8-0.4,1.5-0.8,2.2
				c-0.4,0.7-0.9,1.4-1.4,2.1c-0.6,0.7-1.3,1.5-2.1,2.3l7.6,7.6l8.7-8.7v13l-2.2,2.3l7.2,7.2l-6.5,6.5l-7.2-7.2
				c-1.6,1.6-3,2.9-4.2,4c-1.2,1-2.3,1.9-3.2,2.5c-1,0.6-2,1-3.1,1.3C436.1,245.1,434.9,245.3,433.5,245.3z M433.5,236.1
				c0.7,0,1.3-0.1,1.8-0.3c0.5-0.2,1-0.5,1.5-0.9c0.5-0.4,1.1-1,1.8-1.7s1.5-1.6,2.5-2.6l-7.6-7.6c-1.1,1.1-1.9,1.9-2.6,2.6
				c-0.7,0.7-1.2,1.3-1.6,1.8c-0.4,0.5-0.7,1-0.8,1.5c-0.2,0.5-0.2,1.1-0.2,1.7c0,1.1,0.3,2,0.8,2.8c0.5,0.8,1.2,1.4,2,1.9
				C431.7,235.8,432.6,236.1,433.5,236.1z M433.5,211.5c0.8-0.8,1.5-1.4,1.9-1.8c0.4-0.4,0.7-0.8,0.9-1.1c0.1-0.3,0.2-0.7,0.2-1.2
				c0-1-0.3-1.8-1-2.3c-0.7-0.5-1.3-0.8-2-0.8c-0.8,0-1.5,0.3-2.1,0.9c-0.6,0.6-0.9,1.3-0.9,2.2c0,0.5,0.1,0.9,0.3,1.3
				c0.2,0.4,0.5,0.7,0.9,1.2C432.2,210.2,432.7,210.7,433.5,211.5z"/>
			<path fill="#279EA4" d="M519.2,197.8v9.2h-13.7v37.4h-9.2V207h-13.7v-9.2H519.2z"/>
			<path fill="#279EA4" d="M525.9,244.4l0-33.3h9.2l0,2.5c1.1-1.1,2.4-1.9,3.9-2.5c1.5-0.6,3.1-0.9,4.7-0.9c1.2,0,2.4,0.2,3.7,0.5
				l-3.6,9.3c-0.8-0.3-1.6-0.5-2.4-0.5c-1.2,0-2.2,0.3-3.2,0.8c-1,0.6-1.7,1.3-2.3,2.2c-0.6,0.9-0.8,2-0.8,3.2v18.6H525.9z"/>
			<path fill="#279EA4" d="M576.4,211.1h9.2v33.3h-9.2l-0.4-3.5c-0.9,1.3-2,2.3-3.3,3.1c-1.4,0.8-2.9,1.2-4.8,1.2
				c-2.5,0-4.8-0.5-7-1.4c-2.2-0.9-4-2.2-5.7-3.9s-2.9-3.5-3.8-5.7c-0.9-2.2-1.4-4.5-1.4-7c0-2.4,0.4-4.6,1.3-6.7
				c0.9-2.1,2.1-3.9,3.7-5.5c1.6-1.6,3.4-2.8,5.4-3.7c2.1-0.9,4.3-1.3,6.6-1.3c2,0,3.9,0.4,5.5,1.3c1.6,0.9,3.1,2,4.3,3.3
				L576.4,211.1z M567.7,236.4c1.5,0,2.9-0.4,4.1-1.2c1.2-0.8,2.2-1.8,2.9-3.1c0.7-1.3,1.1-2.8,1.1-4.4c0-1.6-0.4-3.1-1.1-4.4
				c-0.7-1.3-1.7-2.3-2.9-3.1c-1.2-0.8-2.6-1.2-4.1-1.2c-1.5,0-2.9,0.4-4.2,1.2c-1.2,0.8-2.2,1.8-3,3.1c-0.7,1.3-1.1,2.8-1.1,4.4
				s0.4,3.1,1.1,4.4c0.7,1.3,1.7,2.4,3,3.1C564.8,236,566.1,236.4,567.7,236.4z"/>
			<path fill="#279EA4" d="M614.2,244.4h-11.9l-12.1-33.3h9.8l8.2,22.7l8.2-22.7h9.8L614.2,244.4z"/>
			<path fill="#279EA4" d="M647,245.3c-3.1,0-5.8-0.8-8.4-2.4c-2.5-1.6-4.5-3.7-6-6.4c-1.5-2.7-2.2-5.6-2.2-8.8
				c0-2.4,0.4-4.7,1.3-6.8c0.9-2.1,2.1-4,3.6-5.6c1.5-1.6,3.3-2.9,5.3-3.8s4.2-1.4,6.5-1.4c2.6,0,5,0.6,7.2,1.7
				c2.2,1.1,4,2.7,5.6,4.6c1.5,2,2.6,4.2,3.3,6.6c0.7,2.5,0.8,5,0.3,7.7h-23.1c0.3,1,0.7,1.9,1.3,2.6c0.6,0.8,1.4,1.4,2.3,1.9
				c0.9,0.5,1.9,0.7,3.1,0.7c1.2,0,2.2-0.2,3.2-0.8c1-0.6,1.8-1.3,2.5-2.2l9.4,2.2c-1.4,2.9-3.4,5.4-6.1,7.2S650.3,245.3,647,245.3z
				 M639.9,224H654c-0.3-1.1-0.8-2.1-1.5-3c-0.7-0.9-1.5-1.6-2.5-2.1c-1-0.5-2-0.8-3.1-0.8c-1.1,0-2.1,0.3-3.1,0.8
				c-1,0.5-1.8,1.2-2.5,2.1C640.7,221.9,640.2,222.9,639.9,224z"/>
			<path fill="#279EA4" d="M669.6,244.4v-49.9h9.2v49.9H669.6z"/>
			<path fill="#279EA4" d="M696.4,245c-1.7-0.1-3.3-0.5-4.9-1.1c-1.6-0.6-3-1.4-4.2-2.4s-2.2-2.2-2.9-3.6l7.7-3.3
				c0.2,0.4,0.6,0.7,1.1,1.1c0.5,0.4,1.1,0.8,1.8,1.1c0.7,0.3,1.5,0.5,2.4,0.5c0.7,0,1.4-0.1,2-0.2c0.6-0.2,1.2-0.4,1.6-0.8
				c0.4-0.4,0.6-0.9,0.6-1.5c0-0.7-0.3-1.3-0.8-1.6c-0.5-0.4-1.1-0.7-1.8-0.8c-0.7-0.2-1.4-0.3-2.1-0.5c-2-0.4-4-1-5.8-1.9
				c-1.8-0.9-3.3-2.1-4.4-3.6s-1.7-3.2-1.7-5.3c0-2.2,0.6-4.2,1.8-5.8c1.2-1.6,2.7-2.9,4.6-3.8c1.9-0.9,3.9-1.3,6.1-1.3
				c2.6,0,5,0.5,7.2,1.6c2.2,1.1,4,2.6,5.4,4.6l-7.3,4.3c-0.3-0.4-0.7-0.8-1.1-1.2c-0.5-0.4-1-0.7-1.6-1s-1.2-0.4-1.9-0.5
				c-0.9-0.1-1.7,0-2.4,0.1c-0.7,0.2-1.3,0.5-1.7,0.9c-0.4,0.4-0.6,1-0.6,1.8c0,0.7,0.3,1.3,1,1.6c0.6,0.3,1.4,0.6,2.2,0.8
				c0.8,0.2,1.6,0.4,2.2,0.6c1.9,0.6,3.7,1.4,5.4,2.4c1.7,1,3.1,2.1,4.1,3.5c1,1.4,1.5,3,1.5,4.9c0,2.2-0.7,4.1-2,5.8
				c-1.3,1.7-3,2.9-5.1,3.8C700.9,244.9,698.7,245.2,696.4,245z"/>
			<path fill="#279EA4" d="M731.7,244.4v-46.6h9.2v37.4h18.8v9.2H731.7z"/>
			<path fill="#279EA4" d="M771.6,207.3c-1.3,0-2.5-0.4-3.4-1.3c-0.9-0.9-1.4-2-1.4-3.3c0-1.3,0.5-2.4,1.4-3.3
				c0.9-0.9,2-1.3,3.3-1.3c1.3,0,2.4,0.4,3.3,1.3c0.9,0.9,1.3,2,1.3,3.3c0,1.3-0.4,2.4-1.3,3.3C774,206.9,772.9,207.3,771.6,207.3z
				 M767,211.1h9.2v33.3H767V211.1z"/>
			<path fill="#279EA4" d="M784.1,244.4v-33.3h9.2v2.5c1.1-1.1,2.4-1.9,3.9-2.5s3.1-0.9,4.7-0.9c2.3,0,4.3,0.5,6.2,1.6
				c1.9,1,3.4,2.4,4.6,4.2c1.2-1.7,2.7-3.1,4.6-4.2c1.9-1,3.9-1.6,6.2-1.6c2.4,0,4.6,0.6,6.6,1.8c2,1.2,3.5,2.7,4.7,4.7
				c1.2,2,1.8,4.2,1.8,6.6v21.2h-9.2v-18.6c0-1.2-0.3-2.2-0.8-3.1s-1.3-1.7-2.2-2.3s-2-0.8-3.1-0.8c-1.2,0-2.2,0.3-3.1,0.8
				c-0.9,0.6-1.7,1.3-2.3,2.2c-0.6,0.9-0.8,2-0.8,3.2v18.6h-9.2v-18.6c0-1.2-0.3-2.2-0.8-3.2c-0.6-0.9-1.3-1.7-2.2-2.2
				c-0.9-0.6-2-0.8-3.1-0.8c-1.1,0-2.2,0.3-3.1,0.8c-0.9,0.6-1.7,1.3-2.3,2.3c-0.6,0.9-0.8,2-0.8,3.1v18.6H784.1z"/>
			<path fill="#279EA4" d="M847.9,207.3c-1.3,0-2.5-0.4-3.4-1.3c-0.9-0.9-1.4-2-1.4-3.3c0-1.3,0.5-2.4,1.4-3.3
				c0.9-0.9,2-1.3,3.3-1.3c1.3,0,2.4,0.4,3.3,1.3c0.9,0.9,1.3,2,1.3,3.3c0,1.3-0.4,2.4-1.3,3.3C850.3,206.9,849.2,207.3,847.9,207.3
				z M843.2,211.1h9.2v33.3h-9.2V211.1z"/>
			<path fill="#279EA4" d="M878.5,220.3h-6v24.1h-9.2v-24.1h-4.6v-9.2h4.6v-10.4h9.2v10.4h6V220.3z"/>
			<path fill="#279EA4" d="M899.1,245.3c-3.1,0-5.8-0.8-8.4-2.4c-2.5-1.6-4.5-3.7-6-6.4c-1.5-2.7-2.2-5.6-2.2-8.8
				c0-2.4,0.4-4.7,1.3-6.8c0.9-2.1,2.1-4,3.6-5.6c1.5-1.6,3.3-2.9,5.3-3.8s4.2-1.4,6.5-1.4c2.6,0,5,0.6,7.2,1.7
				c2.2,1.1,4,2.7,5.6,4.6c1.5,2,2.6,4.2,3.3,6.6c0.7,2.5,0.8,5,0.3,7.7h-23.1c0.3,1,0.7,1.9,1.3,2.6c0.6,0.8,1.4,1.4,2.3,1.9
				c0.9,0.5,1.9,0.7,3.1,0.7c1.2,0,2.2-0.2,3.2-0.8c1-0.6,1.8-1.3,2.5-2.2l9.4,2.2c-1.4,2.9-3.4,5.4-6.1,7.2
				S902.4,245.3,899.1,245.3z M892,224h14.1c-0.3-1.1-0.8-2.1-1.5-3c-0.7-0.9-1.5-1.6-2.5-2.1c-1-0.5-2-0.8-3.1-0.8
				c-1.1,0-2.1,0.3-3.1,0.8c-1,0.5-1.8,1.2-2.5,2.1C892.8,221.9,892.3,222.9,892,224z"/>
			<path fill="#279EA4" d="M946.1,194.5h9.2v49.9h-9.2v-3.5c-1,1.3-2.3,2.3-3.8,3.2c-1.5,0.8-3.2,1.2-5.2,1.2
				c-2.4,0-4.7-0.5-6.8-1.4c-2.1-0.9-4-2.2-5.6-3.8c-1.6-1.6-2.9-3.5-3.8-5.6c-0.9-2.1-1.4-4.4-1.4-6.8c0-2.4,0.5-4.7,1.4-6.8
				c0.9-2.1,2.2-4,3.8-5.6c1.6-1.6,3.5-2.9,5.6-3.8c2.1-0.9,4.4-1.4,6.8-1.4c1.9,0,3.6,0.4,5.2,1.2c1.5,0.8,2.8,1.9,3.8,3.2V194.5z
				 M937.3,236.4c1.5,0,2.9-0.4,4.1-1.2c1.2-0.8,2.2-1.8,2.9-3.1c0.7-1.3,1.1-2.8,1.1-4.4c0-1.6-0.4-3.1-1.1-4.4
				c-0.7-1.3-1.7-2.3-2.9-3.1c-1.2-0.8-2.6-1.2-4.1-1.2c-1.5,0-2.9,0.4-4.2,1.2c-1.2,0.8-2.2,1.8-3,3.1c-0.7,1.3-1.1,2.8-1.1,4.4
				s0.4,3.1,1.1,4.4c0.7,1.3,1.7,2.4,3,3.1C934.4,236,935.8,236.4,937.3,236.4z"/>
		</g>
	</g>
</g>
<g>
	<text transform="matrix(1 0 0 1 336.2051 406.1943)" fill="#534741" font-family="'Rochester-Regular'" font-size="42.1941px">Let’s explorer</text>
</g>
<g>
	<g>
		<g>
			<path fill="#279EA4" d="M154.6,90.5c-1.7,0-3.4,0.4-4.8-0.1c-2.6-1-4.7-0.1-7.1,0.5c-1.8,0.4-3.8,0.2-5.7-0.1
				c-1.5-0.2-2.9-0.8-4.3-1.4c-2.2-0.9-5.2-0.2-6.5-3.1c-0.1-0.3-0.8-0.6-1.2-0.5c-2,0.5-3.9,1-5.7,1.8c-0.6,0.2-0.7,1.5-0.9,2.4
				c-0.2,0.7-0.1,1.8-0.6,2.1c-0.6,0.4-1.6,0.2-2.3,0c-2.1-0.6-4.1-1.2-6.1-1.9c-0.7-0.2-1.6-0.7-1.8-1.3c-0.9-2.7-3-2.7-5.2-2.7
				c-0.7,0-1.3-0.3-2-0.6c-1.1-0.4-2.2-0.8-3.2-1.2c-0.6-0.3-1.4-0.7-1.6-1.2c-0.2-0.4,0.1-1.5,0.5-1.7c2.4-1.5,1.7-3.1,0.4-4.5
				c0.4-0.9,0.7-1.6,1.2-2.7c-4,0.2-7.4,0.4-10.9,0.6c-1.3,0.1-2.7,0-4.1,0C80,75,77.1,75,74.3,75.5c-2.9,0.5-5.6,1.8-8.5,2.1
				c-1.7,0.2-3.5-0.7-5.2-1.3c-0.7-0.2-1.2-0.8-1.9-1.3c-0.7,0.7-1.6,1.1-2,1.9c-1.4,2.7-4,4-6.6,4.9c-2.8,1-4.1,3-4.4,5.5
				c-0.2,1.9-1.2,2.9-2.6,3.8c-1.1,0.7-2.2,1.6-3.5,1.9c-4.2,1-5.9,5-9,7.3c-1.9,1.4-3.1,3.6-4.6,5.5c-1.1,1.3-2.1,2.7-3,4.1
				c-0.3,0.5-0.7,1.3-0.5,1.8c1.9,6.2-0.4,11.5-3.6,16.6c-0.3,0.4-0.6,1.3-0.4,1.6c1.7,2.1,1.4,4.3,0.1,6.6c3.6,2,6.4,4.9,7.1,8.6
				c0.6,2.9,2,5.1,3.8,6.8l17.3-6.5L94.9,115c-0.8-1.9-0.7-4.1-0.3-6.2c0.5-2.7,2.2-4.7,4.9-5.6c1.5-0.5,3.3-0.3,4.9-0.2
				c0.9,0.1,1.7,0.3,2.5,0.5l4.8-0.9l9,10.1c0.8,0.2,1.6,0.4,2.3,0.7l2.3-0.3c0.8-0.5,1.8-0.7,2.9-0.8l17.5-12.8
				c-2.1,1.9-4.2,3.9-4.7,3.8c0.3,0.3,0.9,0.3,1.5,0.3c2.3-1.5,4.6-3,7-4.2c2-1,4.1-1.7,6.1-2.4C156,94.7,155.6,92.6,154.6,90.5z"/>
			<path fill="#279EA4" d="M201.3,141.8c-5.6,1.3-10.8,2.5-15.8,3.7c-1.6-1.1-3.2-2.2-4.7-3.3c1.3-0.9,0.8-2.1-0.3-3.1
				c-1.7-1.5-3.3-3.3-5.3-4.3c-3.7-1.7-5.5-4.7-7.1-8.1c-0.4-0.9-1.2-1.9-2-2.4c-1.6-1-2.4-2.1-2.6-4c-0.2-1.8-0.5-4.1-1.7-5.3
				c-1.4-1.4-2.2-3.1-2.3-5.2c-0.3,0.1-0.7,0.2-1,0.3l-2.8,4.6c-6.7,5.2-12,6.6-12,6.6l4.3,7.6c0.3,0.5,0.6,1,0.9,1.5l5,8.8
				l-1.1,11.5l-1.6,6.3l0.5,8.4l-2.3,14.3l-1.9,14l5.9,13.3c5.4,27.1-24.8,16.2-24.8,16.2c-6.1-2.1-8.7-13.6-8.7-13.6l1.2-5.7
				l-4.4-3.5c0,0-4.9,1.4-6.1,1.4c-1.2,0-2.3,5.1-2.3,5.1l-6.6,9l-3.8,8.4c0.9,1.4,1.7,2.9,2.5,4.3c1.4,2.4,2,4.9,2.2,7.8
				c0.2,3,1,6.2,2.3,8.9c1.8,3.9,4.4,7.5,6.5,11.2c0.3,0.6,0.5,1.6,0.2,2.1c-1.1,1.9,0,3.3,1.1,4.5c1.2,1.3,2.6,1.4,4.4,1
				c3-0.7,6.2-1.2,9.2-0.9c3.4,0.4,6.2-0.2,8.8-2.2c2.2-1.7,4.1-3.8,6.1-5.8c1.8-1.8,3.5-3.7,5.4-5.5c1.7-1.6,2.7-3.6,2.4-5.9
				c-0.3-2.7,0.2-3.4,2.9-4c2.8-0.6,4.4-2.1,4.6-4.9c0.2-1.9,0.1-4.1-0.7-5.9c-0.8-2-0.1-3,1.4-3.8c3.6-2,6.3-5.5,10.6-6.4
				c0.2-0.1,0.4-0.2,0.6-0.3c2.6-1.7,4.1-3.8,4-7.1c-0.1-2.7,0.3-5.4,0.4-8.1c0-0.5-0.3-1.2-0.7-1.5c-2-2-3.2-4.2-2.1-7.2
				c0.3-0.7,0.1-2.1-0.3-2.5c-1.5-1.3-0.9-2.7-0.3-4c3.6-7.7,9.7-13.3,16.2-18.4c0.3-0.2,0.7-0.4,1-0.5c2.4-0.5,4-2.2,5.4-4
				c5.1-6.2,9.3-12.7,9.8-21C201.7,143.5,201.3,142.4,201.3,141.8z"/>
			<path fill="#279EA4" d="M197.8,214c-0.9,1.1,0.6,3.4-2.1,3.3c-0.1,0-0.2,0.4-0.3,0.6c-3,7.2-5.9,14.3-8.8,21.5
				c-0.6,1.5-1.3,2.7-3.2,2.8c-1.6,0.1-2.8,2.1-4.7,0.2c-1.5-1.5-1.4-3.1-1.2-4.9c0.1-0.9-0.4-2-0.2-2.8c0.3-1.6,0.7-3.3,1.6-4.5
				c1.6-2.3,2.1-4.7,1.6-7.4c-0.6-3.3,0.1-4.3,3.2-5.1c4.6-1.2,7.9-4.2,10.4-8.1c0.3-0.5,0.9-0.8,1.3-1.2c0.4,0.4,0.9,0.8,1.1,1.3
				C196.9,211.1,197.3,212.6,197.8,214z"/>
		</g>
	</g>
	<g>
		<path fill="#279EA4" d="M149.1,200.4c-2.5-4.5-5.3-9-6.8-13.9c-0.1-0.4-0.2-0.9-0.3-1.3c-2.2,4-4.8,7.8-8,11.3
			c-1.7,1.8-3.8,3-6,3.6c-0.1,3.7-2,5.3-6.5,6.8c-0.1,8.1,3.7,14.6,9.9,15.6c4.6,0.7,9.4,0.3,14.1,0.2c0.9,0,2-0.9,2.7-1.7
			C151.4,216.9,151.7,205.1,149.1,200.4z M129.1,208.4c2-2.7,2.5-2.3,8.1,7.6C134.5,213.5,131.8,211,129.1,208.4z"/>
		<path fill="#279EA4" d="M149.2,154.9c0,0.6,0,1.2,0,1.7c0.5-1.1,0.8-2.2,0.5-3c-0.2-0.5-0.3-0.9-0.5-1.4
			C149.2,153.2,149.3,154,149.2,154.9z"/>
		<path fill="#279EA4" d="M83.6,123.9c1.3-0.7,2.5-1.5,3.6-2.3c-3.3-5.3-5.2-5.1-10.5,0.3c1.1,1.3,2.3,2.7,3.4,3.9
			C81.3,125.2,82.4,124.5,83.6,123.9z"/>
		<path fill="#279EA4" d="M29.8,153.1c4.4-0.4,8.4-2.2,12.3-4.1c1.4-0.7,2.7-1.3,4.1-2c-0.4-0.3-0.8-0.7-1.2-1
			c-0.6-0.5-2.1-0.6-3-0.3c-4.4,1.8-8.7,3.9-14,6.3c0.6,0.4,1.1,0.8,1.7,1.2C29.7,153.1,29.8,153.1,29.8,153.1z"/>
		<path fill="#279EA4" d="M118.8,110.5c-1.3-1.7-2.7-3.5-4-5.2c-1-0.9-2-1.8-3.1-2.6c-7.2-5.2-15.8-2.4-17.9,6.2
			c-0.6,2.6-0.4,4.9,0.3,7.1c0.2-0.3,0.5-0.6,0.8-0.8c-0.9-1.9-0.8-4.1-0.3-6.3c0.5-2.7,2.2-4.7,4.9-5.6c1.5-0.5,3.3-0.3,4.9-0.2
			c2.8,0.3,5,1,7.2,2.9c2.3,1.9,2.1,5.4,0.6,7.7c1.7-0.8,3.6-1.2,5.5-1.2c0.5,0,0.9,0,1.3,0.1C119,111.9,119,111.2,118.8,110.5z"/>
		<path fill="#279EA4" d="M155.4,111.4c-2.6,4.3-6.5,7.5-11.6,9.5c6.3-0.6,12.3-5.3,15.5-11.1C158,110.3,156.7,110.8,155.4,111.4z"
			/>
		<path fill="#279EA4" d="M149.4,99.5c3.2-1.6,6.4-2.6,9.6-3.4c-1.2-0.5-2.9-0.5-5.1,0c-7.9,1.7-13.3,7.2-19,12.2
			C140,105.7,144.4,101.9,149.4,99.5z"/>
		<path fill="#279EA4" d="M128.3,112.4c0.2-1,0.2-2.1,0.5-3.2c0.3-1.6,1.3-3.1,1.6-4.7c0.2-1.2,0.2-3.2-0.6-3.7
			c-1.1-0.8-3-1.1-4.4-0.8c-1.3,0.3-2.4,1.7-3.2,2.3c-0.3-4.3-4.6-6.4-8.8-3.5c-0.6,0.4-0.9,2.1-0.6,3c0.4,1.3,1.4,2.3,2.1,3.5
			c1.3,1.7,2.6,3.5,4,5.2c0.2,0.8,0.5,1.5,0.8,2.1c1.6,0.2,3,0.7,4.4,1.5C125.1,113.1,126.5,112.4,128.3,112.4z"/>
		<path fill="#279EA4" d="M62.3,137.8c-3.9-3.2-7-2.3-10.5,2.7c0.8,0.7,1.7,1.4,2.5,2.2C57.1,141.1,59.7,139.5,62.3,137.8z"/>
		<path fill="#279EA4" d="M107.7,197.4c-0.2,1.6-0.5,3.2-0.9,4.7c0.2,0.2,0.5,0.4,0.7,0.5c3.3,2.3,4.7,1.6,5.9-1.7
			C111.2,199.7,109.4,198.6,107.7,197.4z"/>
		<path fill="#279EA4" d="M74.9,129.2c-3.3-3.8-4.5-3.5-9.4,0.9c1,1.1,2.1,2.2,3.1,3.3C70.8,132,72.8,130.6,74.9,129.2z"/>
		<path fill="#279EA4" d="M103.4,211.3c2.3,1.1,3-1,3.7-3.1c-0.7-0.3-1.3-0.6-2-0.9C104.5,208.6,104,210,103.4,211.3z"/>
		<path fill="#279EA4" d="M148.4,172.7c-0.7,0.5-1.3,1-1.9,1.5c-0.2,0.5-0.3,1.1-0.5,1.6c1.3-0.3,2.6-0.6,4.1-1
			C149.4,174,149,173.4,148.4,172.7z"/>
		<path fill="#279EA4" d="M144.6,179.6c-0.1,0.3-0.3,0.6-0.4,0.9l0,0.1c1.3-0.3,2.5-0.6,3.9-0.9c-0.5-0.7-0.9-1.2-1.4-1.8
			C146,178.5,145.3,179.1,144.6,179.6z"/>
		<path fill="#279EA4" d="M146.5,182.1c0.3,0.4,0.6,0.7,0.9,1.1c-0.9,0.2-1.7,0.4-2.5,0.6c0-0.1-0.1-0.3-0.1-0.4
			C145.3,183,145.9,182.6,146.5,182.1z"/>
		<path fill="#279EA4" d="M99.9,218c1.5,0.1,2.7-0.7,2.8-3.4c-0.3-0.1-0.5-0.2-0.8-0.2C101.3,215.5,100.6,216.7,99.9,218z"/>
		<path fill="#279EA4" d="M95.4,224.9c0.5,0.8,1.1,1.6,1.7,2.6c1.2-2.7,2-4.5,2.9-6.6c-0.7,0.1-1.3,0.1-1.9,0.2
			C97.2,222.4,96.3,223.7,95.4,224.9z"/>
	</g>
</g>
<g>
	<path d="M123.6,126.2c-3.2,5.9-6.5,11.7-9.6,17.6c-3,5.6-3,6.2,1,11.1c5,6.2,10,12.3,15,18.5c0.4-0.3,0.8-0.6,1.2-0.9
		c-3-4.3-5.7-8.9-9.1-12.9c-6-6.9-6.6-9.9-2.8-18.3c1.7-3.7,3.4-7.4,5.1-11c0.4-0.8,1-1.5,1.5-2.2c0.3,0.1,0.6,0.3,1,0.4
		c-0.5,1.5-0.9,3.1-1.4,4.6c-1.3,3.3-2.9,6.5-3.9,9.9c-1.9,6.2-0.5,11.9,3.6,16.9c2.3,2.7,4.7,5.4,7.6,8.7c-2.9-9.6-9.5-18-4.4-28
		c-1.1,7.7,1.4,14.5,5.6,21.6c4.3-10.1-0.9-18.2-3.4-26.6c9.1,7,7.5,17.1,7.4,27.7c4.3-7.9,4.3-16.8,0.3-23.2
		c-2.5-4.1-5.4-7.9-8.1-11.9c-0.7-1-1.3-2-1.5-3.2c6.5,5.9,13.1,11.9,15.6,20.6c0.8,2.8-0.3,6.4-1.1,9.6c-0.8,3.3-2.1,6.4-3.3,9.6
		c0.4,0.2,0.8,0.4,1.1,0.6c1.2-2.3,2.5-4.6,3.7-7c5.8-11.5,6.1-8-0.7-19c-2.4-3.9-4.9-7.8-7.4-11.7c0.3-0.2,0.6-0.4,0.8-0.7
		c2.7,3.2,5.6,6.3,8.1,9.6c1.6,2.1,2.8,4.6,4.2,6.9c3.4,5.3,3.5,9.8-1.5,14.6c-2.8,2.7-4.2,6.9-6.2,10.4c0.5,0.3,0.9,0.5,1.4,0.8
		c1.2-2.6,2.4-5.2,3.7-7.8c3.2,2.3,3.3,3.6,1,6c-6.7,7-6.6,17.4-0.1,25c6,6.9,7,15,5.2,23.8c-1.5,7.1-2.7,8.4-9.9,8
		c-2.7-0.1-5.4,0-8.1,0.3c-11,1.3-16.3-8.7-16-16.3c0-0.8,1.3-1.8,2.3-2.2c4.8-1.9,6.6-4.3,5.5-9.4c-1.2-5.2-2.9-10.4-5.1-15.3
		c-2.5-5.3-6.5-6.4-12-4.4c-1.1,0.4-2.2,1.3-3.4,1.4c-1.3,0.2-2.7-0.3-4.1-0.4c0.4-1.5,0.3-3.5,1.2-4.5c3.3-3.3,9.2-3.4,13.6-0.3
		c2.3,1.6,4.3,3.6,6.6,5.5c-1.2-5.4-6.4-10-12.5-10.9c-1.9-0.3-3.9-0.4-5.8-0.7c-3.9-0.7-4.8-2.2-3.8-6.7
		c9.6,2.6,18.8,5.7,23.7,15.6c-0.7-8.3-9.4-17.3-17.3-18.4c-5-0.7-5.9-4.8-7.4-8.6c6.1-1.1,5.7-1.4,9.1-7.2
		c3.1-5.2,7.2-9.8,10.9-14.7c0.5-0.7,1.5-1.1,2.3-1.6C123.2,125.8,123.4,126,123.6,126.2z"/>
	<path d="M104.3,65.4c-1.1-3.1-1.8-5.3-2.7-7.8c2-0.7,3.7-1.3,6.5-2.3c-6.3-3.8-11.8-7.2-17.4-10.5c4-4,6.1-4.7,10.4-2.2
		c11.9,6.7,24,6.8,36.6,2.2c1.7-0.6,3.5-1,5.3-1.4c0.3-0.1,0.7,0.1,2.2,0.4c-6.2,3.3-11.5,6.2-16.9,9.1c2.9,4.3,3.1,4.3,13.8,0.2
		c0,2.3,0,4.4,0,6.6c1.7,0.1,3,0.2,4.8,0.3c-2.6,3.3,0.3,4.1,2,5.4c21.7,15.6,34.2,36.4,36.3,63.2c0.1,1,0.1,2,0.1,2.9
		c0,0.3-0.2,0.6-0.6,1.5c-1.4-5.9-2.5-11.4-4.1-16.7C173.8,92.8,159,75.8,137.3,65C126.8,59.8,115.7,57.3,104.3,65.4z"/>
	<path d="M111.2,99.7c2.6-4.5,6.4-5.3,10.5-2.4c1,0.7,2.6,1,3.9,0.9c4.5-0.4,6.5,1.7,5.6,6.1c-0.4,1.7-0.9,3.3-1.5,4.9
		c-1.9,5.3-4.9,6.3-9.7,3.4c-4.8,5.5-9.7,10.9-14.5,16.3c-0.3-0.2-0.7-0.4-1-0.6c0.9-1.9,1.6-3.8,2.6-5.6c1.4-2.6,3.2-5,4.2-7.7
		c1.5-3.9-0.1-8.3-3.6-9.3c-2.4-0.7-5.9-1.2-7.6,0c-1.8,1.4-2.8,4.8-2.9,7.3c0,3.2,1.3,6.4,2,9.8c-5.9-5.3-8.3-11.8-5.6-17.5
		C96.8,98.7,101.6,97.1,111.2,99.7z"/>
	<path d="M91.1,127.2c1.9-1.1,3.3-1.9,5.3-3c0.5,2.3,1.4,4.2,1.3,6.1c-0.3,6-0.7,12-1.4,17.9c-0.7,6.1-1.9,12.2-3.5,18.6
		c-0.5-2.3-1.4-4.7-1.3-7c0.4-7.3,1.2-14.7,1.6-22c0.2-3-0.4-6-0.7-9.4c-3.4,1.3-4.9,3.2-4.8,6.2c0.3,6.6,0.6,13.2,0.8,19.8
		c0.1,1.4,0,2.8,0,4.3c-0.3,0.1-0.7,0.2-1,0.4c-0.6-1-1.5-1.9-1.6-3c-1.4-7.6-3.9-15.3-0.9-23.1c0.2-0.6,0-1.8-0.4-2.3
		c-1.8-2.2-3.8-4.1-5.6-6.3c-1-1.2-2.6-3.6-2.4-3.8c1.7-1.8,3.7-3.5,6-4.4c0.9-0.3,3.1,1.5,4,2.8C88.3,121.4,89.5,124.2,91.1,127.2z
		"/>
	<path d="M27.8,150.1c4.8-2.1,9.5-4.3,14.3-6.2c0.8-0.3,2.4,0.7,3.3,1.5c4.4,3.9,8.7,7.8,13,11.8c2.4-1.8,4.5-3.4,7-5.3
		c1.1,1.4,2,2.6,3.2,4.2c-2,0.5-3.3,0.9-4.7,1.2c-5.5,1.1-11,2.3-16.5,3.3c-3.9,0.7-7.6-0.1-10.8-2.5c-2.9-2.2-5.8-4.4-8.7-6.6
		C27.9,151,27.8,150.6,27.8,150.1z"/>
	<path d="M145.1,119.7c1.2-0.8,2.4-1.5,3.6-2.3c5.1-3.5,8.5-8.1,9.6-14.2c0.7-3.8-0.4-4.8-4.1-4.2c-4.8,0.7-7.9,3.8-9.9,8
		c-1,2.1-1.5,4.4-2.4,6.6c-0.7,1.9-1.3,4-4.3,4c0.4-2.8,0.8-5.4,1.2-8.3c-4.7,0.6-3.8,4.5-4.7,7.2c-3.2-1.5-4.5-4-2.6-6
		c6.3-6.7,12.3-13.8,21.9-16.1c5.3-1.3,8.9,1.4,8.8,6.7c-0.2,8.5-6.5,16.9-14.3,19.1c-0.8,0.2-1.6,0.2-2.4,0.3
		C145.2,120.1,145.2,119.9,145.1,119.7z"/>
	<path d="M71.3,146.5c-0.1,0.2-0.2,0.5-0.3,0.6c-4.8,5.2-4.8,5.1-10.1,0.7c-2.8-2.4-5.7-4.6-8.5-6.9c-0.5-0.5-1.1-1.4-1-2
		c0.5-3.2,6.7-5.8,9.2-3.8c4,3.4,7.8,7,11.7,10.5C71.9,145.9,71.6,146.2,71.3,146.5z"/>
	<path d="M87.5,172.3c1.2,1.8,2.5,3.5,3.6,5.4c5.4,8.7,11.6,16.6,20.8,21.8c0.8,0.4,0.8,2.3,1.2,3.4c-1.3,0.3-3,1.4-3.7,0.9
		c-10-7-18.3-15.4-21.7-27.7c-0.3-1.1-0.5-2.3-0.8-3.5C87,172.5,87.2,172.4,87.5,172.3z"/>
	<path d="M76.8,141c-3.8-3.5-7.5-6.7-10.9-10.2c-0.5-0.5-0.5-2.4,0-3.1c2.5-3.6,6.3-3.4,8.8,0.2c1.1,1.5,2.3,2.8,3.5,4.2
		c1.1,1.3,2.2,2.6,3.9,4.5C80.3,138.1,78.6,139.5,76.8,141z"/>
	<path d="M103.6,143.3c0.6-8.6,11.7-20.2,18.5-21.6C116.3,128.4,110,135.8,103.6,143.3z"/>
	<path d="M77.3,142.1c1.3,5.3,2.5,10.2,3.8,15.5c-4.6,0.9-5.4-2.6-6.5-5.3C72,145.8,72.2,145,77.3,142.1z"/>
	<path d="M120.9,184c-10.9,2.6-13.1,4.9-15.3,0.1C111.5,179,118.3,178.8,120.9,184z"/>
	<path d="M99,204.1c2.4,1,4.9,2,7.2,3.2c0.6,0.3,1.3,1.4,1.2,1.9c-0.2,0.8-1.2,2.3-1.5,2.2c-2.4-0.7-4.8-1.4-6.8-2.7
		c-0.9-0.6-0.8-2.6-1.2-3.9C98.2,204.6,98.6,204.4,99,204.1z"/>
	<path d="M123.9,195.8c-4.3-1-8-1.9-12-2.8C117,188.9,121.7,189.9,123.9,195.8z"/>
	<path d="M104.6,214.7c-1.6,1.5-2.6,3.3-3.6,3.3c-2.7-0.1-5.3-1.1-5.9-4.8C98.2,211.6,100.7,213.8,104.6,214.7z"/>
	<path d="M100.9,221.2c-1.2,1.8-2.4,3.7-3.9,6c-1.4-2.2-2.4-3.8-3.8-6c2.7-0.4,4.8-0.6,7-0.9C100.4,220.6,100.7,220.9,100.9,221.2z"
		/>
	<path d="M114.7,120.9c3.5-2.6,7.3-4.5,11.7-4.9C122.8,118.7,119.1,120.8,114.7,120.9z"/>
	<path d="M140.3,122.7c2.5,2.7,4.9,5.4,7.4,8.2c-0.3,0.3-0.6,0.6-1,0.9c-2.4-2.7-4.9-5.4-7.3-8.1C139.7,123.4,140,123.1,140.3,122.7
		z"/>
</g>
</svg>
